<mxfile host="app.diagrams.net" modified="2024-01-19T15:45:36.369Z" agent="Mozilla/5.0 (Macintosh; Intel Mac OS X 10_15_7) AppleWebKit/605.1.15 (KHTML, like Gecko) Version/17.2.1 Safari/605.1.15" etag="mOCGsojALEJlCNPjxaG6" version="22.1.21" type="github">
  <diagram name="Page-1" id="SP8hqKRkjQrA7423Tj-U">
    <mxGraphModel dx="1903" dy="1106" grid="1" gridSize="10" guides="1" tooltips="1" connect="1" arrows="1" fold="1" page="1" pageScale="1" pageWidth="827" pageHeight="1169" math="0" shadow="0">
      <root>
        <mxCell id="0" />
        <mxCell id="1" parent="0" />
        <mxCell id="WpuS618zYjCX4XtYwsTc-51" value="" style="group" vertex="1" connectable="0" parent="1">
          <mxGeometry x="150" y="100" width="472" height="178" as="geometry" />
        </mxCell>
        <mxCell id="WpuS618zYjCX4XtYwsTc-15" value="" style="endArrow=none;html=1;rounded=0;strokeWidth=13;" edge="1" parent="WpuS618zYjCX4XtYwsTc-51">
          <mxGeometry width="50" height="50" relative="1" as="geometry">
            <mxPoint x="168" y="51" as="sourcePoint" />
            <mxPoint x="306" y="51" as="targetPoint" />
          </mxGeometry>
        </mxCell>
        <mxCell id="WpuS618zYjCX4XtYwsTc-16" value="" style="endArrow=none;html=1;rounded=0;strokeWidth=13;" edge="1" parent="WpuS618zYjCX4XtYwsTc-51">
          <mxGeometry width="50" height="50" relative="1" as="geometry">
            <mxPoint x="188" y="115" as="sourcePoint" />
            <mxPoint x="288" y="115" as="targetPoint" />
          </mxGeometry>
        </mxCell>
        <mxCell id="WpuS618zYjCX4XtYwsTc-17" value="" style="endArrow=none;html=1;rounded=0;strokeWidth=13;" edge="1" parent="WpuS618zYjCX4XtYwsTc-51">
          <mxGeometry width="50" height="50" relative="1" as="geometry">
            <mxPoint x="305" y="51" as="sourcePoint" />
            <mxPoint x="391" y="66" as="targetPoint" />
          </mxGeometry>
        </mxCell>
        <mxCell id="WpuS618zYjCX4XtYwsTc-19" value="" style="rounded=1;whiteSpace=wrap;html=1;fillColor=none;strokeWidth=13;rotation=0;arcSize=50;" vertex="1" parent="WpuS618zYjCX4XtYwsTc-51">
          <mxGeometry x="388" y="35" width="45" height="85" as="geometry" />
        </mxCell>
        <mxCell id="WpuS618zYjCX4XtYwsTc-20" value="" style="rounded=1;whiteSpace=wrap;html=1;fillColor=none;strokeWidth=13;rotation=0;arcSize=50;" vertex="1" parent="WpuS618zYjCX4XtYwsTc-51">
          <mxGeometry x="41" y="35" width="45" height="85" as="geometry" />
        </mxCell>
        <mxCell id="WpuS618zYjCX4XtYwsTc-21" value="" style="endArrow=none;html=1;rounded=0;strokeWidth=13;" edge="1" parent="WpuS618zYjCX4XtYwsTc-51">
          <mxGeometry width="50" height="50" relative="1" as="geometry">
            <mxPoint x="84" y="67" as="sourcePoint" />
            <mxPoint x="170" y="51" as="targetPoint" />
          </mxGeometry>
        </mxCell>
        <mxCell id="WpuS618zYjCX4XtYwsTc-22" value="" style="endArrow=none;html=1;rounded=0;strokeWidth=13;" edge="1" parent="WpuS618zYjCX4XtYwsTc-51">
          <mxGeometry width="50" height="50" relative="1" as="geometry">
            <mxPoint x="306" y="96" as="sourcePoint" />
            <mxPoint x="395" y="96" as="targetPoint" />
          </mxGeometry>
        </mxCell>
        <mxCell id="WpuS618zYjCX4XtYwsTc-23" value="" style="endArrow=none;html=1;rounded=0;strokeWidth=13;" edge="1" parent="WpuS618zYjCX4XtYwsTc-51">
          <mxGeometry width="50" height="50" relative="1" as="geometry">
            <mxPoint x="81" y="96" as="sourcePoint" />
            <mxPoint x="170" y="96" as="targetPoint" />
          </mxGeometry>
        </mxCell>
        <mxCell id="WpuS618zYjCX4XtYwsTc-24" value="" style="endArrow=none;html=1;rounded=0;strokeWidth=13;" edge="1" parent="WpuS618zYjCX4XtYwsTc-51">
          <mxGeometry width="50" height="50" relative="1" as="geometry">
            <mxPoint x="166" y="95" as="sourcePoint" />
            <mxPoint x="192" y="116" as="targetPoint" />
          </mxGeometry>
        </mxCell>
        <mxCell id="WpuS618zYjCX4XtYwsTc-25" value="" style="endArrow=none;html=1;rounded=0;strokeWidth=13;" edge="1" parent="WpuS618zYjCX4XtYwsTc-51">
          <mxGeometry width="50" height="50" relative="1" as="geometry">
            <mxPoint x="310" y="95" as="sourcePoint" />
            <mxPoint x="284" y="116" as="targetPoint" />
          </mxGeometry>
        </mxCell>
        <mxCell id="WpuS618zYjCX4XtYwsTc-26" value="" style="endArrow=oval;html=1;rounded=0;strokeWidth=13;endFill=1;" edge="1" parent="WpuS618zYjCX4XtYwsTc-51">
          <mxGeometry width="50" height="50" relative="1" as="geometry">
            <mxPoint x="167" y="102" as="sourcePoint" />
            <mxPoint x="127" y="178" as="targetPoint" />
          </mxGeometry>
        </mxCell>
        <mxCell id="WpuS618zYjCX4XtYwsTc-27" value="" style="endArrow=oval;html=1;rounded=0;strokeWidth=13;startArrow=none;startFill=0;endFill=1;" edge="1" parent="WpuS618zYjCX4XtYwsTc-51">
          <mxGeometry width="50" height="50" relative="1" as="geometry">
            <mxPoint x="306" y="100" as="sourcePoint" />
            <mxPoint x="346" y="176" as="targetPoint" />
          </mxGeometry>
        </mxCell>
        <mxCell id="WpuS618zYjCX4XtYwsTc-28" value="" style="rounded=1;whiteSpace=wrap;html=1;strokeWidth=13;fillColor=none;" vertex="1" parent="WpuS618zYjCX4XtYwsTc-51">
          <mxGeometry x="204" y="115" width="67" height="31" as="geometry" />
        </mxCell>
        <mxCell id="WpuS618zYjCX4XtYwsTc-30" value="" style="endArrow=none;html=1;rounded=0;strokeWidth=13;curved=0;jumpSize=13;startArrow=none;startFill=0;" edge="1" parent="WpuS618zYjCX4XtYwsTc-51">
          <mxGeometry width="50" height="50" relative="1" as="geometry">
            <mxPoint x="348" as="sourcePoint" />
            <mxPoint x="472" as="targetPoint" />
          </mxGeometry>
        </mxCell>
        <mxCell id="WpuS618zYjCX4XtYwsTc-31" value="" style="endArrow=none;html=1;rounded=0;strokeWidth=13;" edge="1" parent="WpuS618zYjCX4XtYwsTc-51">
          <mxGeometry width="50" height="50" relative="1" as="geometry">
            <mxPoint x="411" y="2" as="sourcePoint" />
            <mxPoint x="411" y="31" as="targetPoint" />
          </mxGeometry>
        </mxCell>
        <mxCell id="WpuS618zYjCX4XtYwsTc-32" value="" style="endArrow=none;html=1;rounded=0;strokeWidth=13;" edge="1" parent="WpuS618zYjCX4XtYwsTc-51">
          <mxGeometry width="50" height="50" relative="1" as="geometry">
            <mxPoint x="63.30000000000001" y="2" as="sourcePoint" />
            <mxPoint x="63.30000000000001" y="31" as="targetPoint" />
          </mxGeometry>
        </mxCell>
        <mxCell id="WpuS618zYjCX4XtYwsTc-33" value="" style="endArrow=none;html=1;rounded=0;strokeWidth=13;curved=0;jumpSize=13;startArrow=none;startFill=0;" edge="1" parent="WpuS618zYjCX4XtYwsTc-51">
          <mxGeometry width="50" height="50" relative="1" as="geometry">
            <mxPoint as="sourcePoint" />
            <mxPoint x="124" as="targetPoint" />
          </mxGeometry>
        </mxCell>
        <mxCell id="WpuS618zYjCX4XtYwsTc-52" value="" style="endArrow=none;html=1;rounded=0;entryX=0.5;entryY=1;entryDx=0;entryDy=0;strokeWidth=4;" edge="1" parent="1" target="WpuS618zYjCX4XtYwsTc-28">
          <mxGeometry width="50" height="50" relative="1" as="geometry">
            <mxPoint x="388" y="590" as="sourcePoint" />
            <mxPoint x="500" y="470" as="targetPoint" />
          </mxGeometry>
        </mxCell>
        <mxCell id="WpuS618zYjCX4XtYwsTc-53" value="" style="ellipse;whiteSpace=wrap;html=1;aspect=fixed;fillColor=#000000;" vertex="1" parent="1">
          <mxGeometry x="354" y="545" width="65" height="65" as="geometry" />
        </mxCell>
      </root>
    </mxGraphModel>
  </diagram>
</mxfile>
